<svg xmlns="http://www.w3.org/2000/svg" xml:space="preserve" width="655.359" height="655.359" style="shape-rendering:geometricPrecision;text-rendering:geometricPrecision;image-rendering:optimizeQuality;fill-rule:evenodd;clip-rule:evenodd" viewBox="0 0 6.827 6.827"><defs><style>.fil1{fill:#fff}</style></defs><g id="Layer_x0020_1"><path d="M5.973 3.268c0-.618-.288-1.176-.754-1.58a2.756 2.756 0 0 0-1.806-.65c-.704 0-1.343.249-1.805.65-.466.404-.755.962-.755 1.58 0 .38.11.738.302 1.051.184.3.445.558.76.756a2.008 2.008 0 0 1-.255.235c-.15.12-.313.228-.41.267l-.215.086.223.065c.002 0 .87.261 1.474-.311a2.874 2.874 0 0 0 .681.08c.705 0 1.343-.248 1.806-.65.466-.403.754-.962.754-1.58z" style="fill:#909090"/><g id="_492212808"><path id="_492213384" class="fil1" d="M3.183 1.855a.292.292 0 0 0-.073.341.331.331 0 0 0 .304.19.328.328 0 0 0 .303-.19.293.293 0 0 0 .025-.12.294.294 0 0 0-.098-.22.325.325 0 0 0-.23-.09.34.34 0 0 0-.23.09z"/><path id="_492213240" class="fil1" d="M3.27 3.186a2.827 2.827 0 0 1-.04.175l-.001.002-.176.622a2.248 2.248 0 0 0-.033.167 1.096 1.096 0 0 0-.009.14c0 .051.01.097.027.137a.32.32 0 0 0 .083.11.373.373 0 0 0 .137.075.67.67 0 0 0 .2.026.97.97 0 0 0 .143-.01.66.66 0 0 0 .119-.028 6.26 6.26 0 0 0 .21-.077.61.61 0 0 1-.195-.01.278.278 0 0 1-.113-.053.227.227 0 0 1-.072-.11.43.43 0 0 1-.02-.133c0-.02.003-.043.006-.072l.013-.09a2.297 2.297 0 0 1 .042-.18l.175-.623v-.001a.785.785 0 0 0 .033-.17 3.45 3.45 0 0 0 .009-.135c0-.053-.01-.1-.027-.14a.31.31 0 0 0-.08-.11.361.361 0 0 0-.133-.072.781.781 0 0 0-.327-.015c-.111.018-.24.066-.344.105a.587.587 0 0 1 .198.011.25.25 0 0 1 .114.058v.001c.03.027.05.063.063.107.01.037.016.08.016.128a.762.762 0 0 1-.017.165z"/></g></g><path style="fill:none" d="M0 0h6.827v6.827H0z"/></svg>