<svg version="1.1" id="Layer_1" xmlns="http://www.w3.org/2000/svg" x="0" y="0" viewBox="0 0 512 512" style="enable-background:new 0 0 512 512" xml:space="preserve"><style>.st1{fill:#edf3fc}.st3{fill:#ffbe1b}.st10{fill:#5d8ef9}</style><path class="st1" d="M255.999 40.928c-118.778 0-215.071 96.294-215.071 215.074 0 118.776 96.292 215.068 215.071 215.068S471.07 374.778 471.07 256.002c0-118.78-96.293-215.074-215.071-215.074z"/><path class="st1" d="M255.999 1C115.391 1 1 115.392 1 256.002 1 396.609 115.391 511 255.999 511S511 396.609 511 256.002C511 115.392 396.607 1 255.999 1zm0 501.832c-136.103 0-246.83-110.728-246.83-246.83 0-136.104 110.727-246.833 246.83-246.833 136.102 0 246.832 110.729 246.832 246.833 0 136.102-110.73 246.83-246.832 246.83z"/><path class="st10" d="m377.3 134.947 2.161.541-2.161.541a35.341 35.341 0 0 0-25.695 25.7l-.544 2.158-.542-2.158a35.346 35.346 0 0 0-25.701-25.7l-2.153-.541 2.153-.541a35.35 35.35 0 0 0 25.701-25.695l.542-2.156.544 2.156a35.348 35.348 0 0 0 25.695 25.695zM422.607 183.756l1.542.386-1.542.386a25.212 25.212 0 0 0-18.33 18.333l-.388 1.54-.387-1.54a25.215 25.215 0 0 0-18.334-18.333l-1.536-.386 1.536-.386a25.216 25.216 0 0 0 18.334-18.33l.387-1.538.388 1.538a25.218 25.218 0 0 0 18.33 18.33z"/><path class="st3" d="m127.554 241.001 1.362.341-1.362.341a22.278 22.278 0 0 0-16.197 16.2l-.343 1.36-.342-1.36a22.282 22.282 0 0 0-16.201-16.2l-1.357-.341 1.357-.341a22.283 22.283 0 0 0 16.201-16.197l.342-1.359.343 1.359a22.282 22.282 0 0 0 16.197 16.197zM132.867 312.826l2.541.637-2.541.637a41.56 41.56 0 0 0-30.215 30.22l-.64 2.538-.638-2.538a41.562 41.562 0 0 0-30.222-30.22l-2.532-.637 2.532-.637a41.568 41.568 0 0 0 30.222-30.215l.638-2.536.64 2.536a41.567 41.567 0 0 0 30.215 30.215zM376.592 256c0 66.602-53.993 120.591-120.595 120.591-66.599 0-120.589-53.989-120.589-120.591s53.99-120.591 120.589-120.591c66.602 0 120.595 53.989 120.595 120.591z"/><path d="M255.997 376.591c30.038 0 57.489-11.006 78.599-29.173-1.175-11.783-9.318-21.856-20.837-25.325l-18.466-5.566s-6.064-1.765-6.953-2.062c-5.631-1.892-9.977-3.883-10.932-6.859-.807-2.515-1.218-5.109-1.388-7.595-.1.061-.204.113-.305.173a63.935 63.935 0 0 0 6.997-4.744c9.858-7.708 19.025-16.442 19.025-26.248 0-1.229-.041-3.197-.11-5.697.697.134 1.432.132 2.117-.204 2.296-1.123 4.397-10.148 5.169-13.064.766-2.916 1.002-7.027-2.299-9.713-.82-.666-1.724-.881-2.625-.831.097-.691.195-1.404.292-2.15.952-7.135 10.373-31.348-3.015-47.648-5.047-6.149-11.356-9.28-18.331-8.424-5.311-6.91-18.745-9.278-31.59-7.561-14.166 1.894-22.376 4.255-32.56 11.156-5.825 3.948-16.057 13.326-17.552 24.82-1.369 10.505 1.288 22.46 3.31 29.806-.886-.041-1.774.174-2.578.831-3.301 2.687-3.065 6.797-2.299 9.713.766 2.916 2.87 11.941 5.169 13.064 1.818.887 3.979-.416 4.805-.999-.009 1.476-.016 2.91-.016 4.246 0 11.628 7.163 19.143 17.787 27.248 2.742 2.092 6.039 4.21 9.33 6.14-.166 2.512-.578 5.136-1.394 7.68-.581 1.815-3.046 3.433-6.369 4.964-2.06.951-14.732 4.896-14.732 4.896l-15.868 4.695c-11.557 3.422-19.75 13.476-20.969 25.267 21.112 18.161 48.559 29.164 78.588 29.164z" style="fill:#5932ae"/><path d="m414.889 351.624 2.551.639-2.551.639a41.723 41.723 0 0 0-30.334 30.339l-.642 2.548-.64-2.548a41.725 41.725 0 0 0-30.342-30.339l-2.542-.639 2.542-.639a41.733 41.733 0 0 0 30.342-30.334l.64-2.546.642 2.546a41.73 41.73 0 0 0 30.334 30.334z" style="fill:#330d84"/></svg>