<svg xmlns="http://www.w3.org/2000/svg" xml:space="preserve" width="2048" height="2048" style="shape-rendering:geometricPrecision;text-rendering:geometricPrecision;image-rendering:optimizeQuality;fill-rule:evenodd;clip-rule:evenodd"><defs><style>.fil0{fill:#424242;fill-rule:nonzero}</style></defs><g id="Layer_x0020_1"><g id="_325742544"><path id="_325743000" class="fil0" d="M255.998 1301.87V376.056c0-17.673 14.328-32 32-32h1472c17.674 0 32.002 14.327 32.002 32v925.814H256zm64-64h1408.01V408.056H319.997v829.816z"/><path id="_325743096" class="fil0" d="M1760 1475.08H288c-17.673 0-32-14.328-32-32v-200.455h1536v200.454c0 17.673-14.329 32.001-32.002 32.001zm-145.776-170.051c-17.673 0-32 14.328-32 32 0 17.674 14.327 32.002 32 32.002h16.523c17.672 0 32-14.328 32-32.001s-14.328-32.001-32-32.001h-16.523z"/><path id="_325743312" class="fil0" d="M928.637 1411.45c-17.465-2.623-33.752 9.41-36.376 26.875-8.581 57.104-67.498 112.64-118.026 160.269-19.057 17.963-37.019 34.897-52.423 52.066l-.098-.087c-11.8 13.156-10.7 33.389 2.456 45.188a31.881 31.881 0 0 0 21.366 8.175v.004h556.93c17.673 0 32-14.328 32-32 0-9.296-3.964-17.663-10.293-23.51-14.945-16.407-32.175-32.651-50.407-49.836-50.527-47.628-109.445-103.165-118.026-160.27-2.623-17.464-18.91-29.497-36.375-26.874-421.8 63.354 226.412 62.654-190.727 0z"/><path id="_325742856" class="fil0" d="M813.98 747.258h420.04c13.254 0 24 10.746 24 24V918.72c0 64.38-26.32 122.89-68.724 165.295-42.403 42.403-100.915 68.724-165.295 68.724H1024c-64.38 0-122.893-26.321-165.295-68.724C816.3 1041.61 789.98 983.099 789.98 918.72V771.258c0-13.254 10.746-24 24-24zm229.547 182.071c0-13.254-10.746-24-24-24s-24 10.746-24 24v48.038c0 13.254 10.746 24 24 24s24-10.746 24-24v-48.038z"/><path id="_325742976" d="M1163.86 827.257H884.131c-22.086 0-40-17.914-40-40v-98.202c0-47.813 19.019-93.278 52.803-127.061 33.783-33.784 79.247-52.802 127.061-52.802 47.815 0 93.279 19.018 127.062 52.802 33.784 33.783 52.803 79.247 52.803 127.061v98.203c0 22.085-17.914 39.999-40 39.999zm-239.73-79.999h199.73v-58.203c0-26.562-10.609-51.738-29.367-70.498-18.76-18.758-43.937-29.367-70.499-29.367-26.562 0-51.738 10.609-70.498 29.367-18.758 18.76-29.367 43.936-29.367 70.498v58.203z" style="fill:#424242"/></g></g><path style="fill:none" d="M0 0h2048v2048H0z"/></svg>