<svg xmlns="http://www.w3.org/2000/svg" xml:space="preserve" width="2048" height="2048" style="shape-rendering:geometricPrecision;text-rendering:geometricPrecision;image-rendering:optimizeQuality;fill-rule:evenodd;clip-rule:evenodd"><defs><style>.fil0,.fil1{fill:#212121;fill-rule:nonzero}.fil0{fill:#66bb6a}</style></defs><g id="Layer_x0020_1"><g id="_475111800"><path id="_475111176" class="fil0" d="M1219.08 1278.97c-53.136 53.136-79.704 122.779-79.704 192.417s26.568 139.282 79.704 192.416c53.136 53.135 122.778 79.704 192.416 79.704 69.638 0 139.282-26.569 192.417-79.704 53.135-53.136 79.703-122.778 79.704-192.417 0-69.638-26.569-139.282-79.704-192.416-53.134-53.136-122.778-79.704-192.416-79.704-69.639 0-139.282 26.568-192.417 79.704zm-127.7 192.417c0-81.925 31.253-163.853 93.758-226.358 62.505-62.505 144.432-93.757 226.358-93.758 81.925 0 163.853 31.253 226.357 93.758 62.505 62.504 93.759 144.432 93.759 226.357-.002 81.926-31.254 163.853-93.759 226.358-62.505 62.505-144.434 93.758-226.358 93.758-81.925 0-163.852-31.253-226.357-93.758-62.505-62.505-93.758-144.432-93.758-226.357z"/><path id="_475111368" class="fil0" d="M1435.5 1279.39v384h-48v-384z"/><path id="_475111536" class="fil0" d="M1219.5 1447.39h384v48h-384z"/></g><g id="_475111464"><path id="_475111296" class="fil1" d="M657.395 1072.86h42.82c6.482 0 12.362 2.57 16.68 6.746 18.7 15.141 38.312 27.241 58.571 35.42 18.883 7.622 38.435 11.807 58.443 11.807 20.007 0 39.56-4.185 58.444-11.808 20.8-8.396 40.915-20.925 60.064-36.634l15.188 18.469-15.223-18.555a23.907 23.907 0 0 1 15.223-5.445h42.818c91.738 0 175.301 36.691 236.738 96.111a343.62 343.62 0 0 0-41.685 26.756c-51.913-46.498-120.34-74.867-195.053-74.867H975.87c-20.86 16.23-42.831 29.37-65.703 38.603-24.582 9.923-50.09 15.37-76.258 15.37-26.169 0-51.676-5.447-76.256-15.37-22.87-9.233-44.842-22.372-65.702-38.603h-34.556c-80.551 0-153.8 32.973-206.919 86.092s-86.09 126.369-86.09 206.92v166.208h720.539a342.317 342.317 0 0 0 20.127 48H340.386c-13.255 0-24-10.746-24-24v-190.208c0-93.802 38.357-179.062 100.153-240.858 61.795-61.796 147.054-100.154 240.856-100.154z"/><path id="_475111776" class="fil1" d="M833.909 256.5c100.207 0 191.03 24.18 255.215 75.503 59.052 47.222 95.107 116.352 95.107 209.438 0 102.511-45.046 239.701-116.323 343.111-61.476 89.19-143.059 154.317-233.999 154.317S661.386 973.742 599.91 884.553c-71.276-103.41-116.322-240.598-116.322-343.112 0-93.086 36.056-162.217 95.107-209.438C642.88 280.678 733.702 256.5 833.91 256.5zm225.402 112.817c-55.1-44.06-135.447-64.817-225.402-64.817-89.955 0-170.302 20.757-225.401 64.817-47.76 38.191-76.92 94.93-76.92 172.125 0 93.886 41.705 220.182 107.697 315.925 53.184 77.16 121.517 133.502 194.623 133.502 73.107 0 141.44-56.343 194.623-133.504 65.993-95.741 107.7-222.039 107.7-315.924 0-77.196-29.162-133.934-76.921-172.125z"/></g></g><path style="fill:none" d="M0 0h2048v2048H0z"/></svg>