<svg xmlns="http://www.w3.org/2000/svg" xml:space="preserve" width="2048" height="2048" style="shape-rendering:geometricPrecision;text-rendering:geometricPrecision;image-rendering:optimizeQuality;fill-rule:evenodd;clip-rule:evenodd"><defs><style>.fil0,.fil1{fill:#212121;fill-rule:nonzero}.fil1{fill:#66bb6a}</style></defs><g id="Layer_x0020_1"><path class="fil0" d="M400.185 574.779h1247.63c14.476 0 27.683 5.946 37.313 15.534l.002-.001.046.047.002.001.048-.048a24.32 24.32 0 0 1 1.672 1.853c8.6 9.449 13.858 21.942 13.858 35.555v596.389c0 14.475-5.946 27.682-15.534 37.313v.001l-.046.046-.002.003.049.048a24.32 24.32 0 0 1-1.853 1.671c-9.45 8.6-21.943 13.858-35.555 13.858H400.185c-14.476 0-27.683-5.945-37.313-15.534l-.002.002-.046-.048h-.002l-.049.048a24.32 24.32 0 0 1-1.67-1.854c-8.6-9.448-13.859-21.942-13.859-35.554v-596.39c0-14.475 5.946-27.682 15.534-37.313v-.001l.046-.046.001-.002-.048-.049a24.32 24.32 0 0 1 1.853-1.671c9.449-8.6 21.943-13.858 35.555-13.858zm1247.63 48H400.185c-1.124 0-2.14.344-2.936.921-.175.187-.352.371-.534.553l-16.969-16.972 16.876 16.968c-.85.85-1.378 2.076-1.378 3.47v596.39c0 1.124.344 2.14.922 2.936.186.175.37.352.552.534l-16.972 16.968 16.969-16.875c.85.85 2.075 1.377 3.47 1.377h1247.63c1.124 0 2.14-.344 2.936-.921.175-.187.352-.371.534-.553l16.969 16.973-16.876-16.97c.85-.849 1.377-2.075 1.377-3.47V627.72c0-1.125-.343-2.14-.92-2.937-.187-.174-.372-.352-.554-.534l16.973-16.968-16.969 16.875c-.85-.849-2.075-1.377-3.47-1.377zM279.999 1300.93h575.73c13.045 0 23.661 10.41 23.992 23.375.775 4.836 3.229 9.17 6.75 12.389 3.745 3.425 8.803 5.523 14.402 5.523h246.253c5.6 0 10.657-2.098 14.403-5.523 3.867-3.536 6.446-8.416 6.93-13.826l23.811 2.062-23.904-2.135c1.115-12.485 11.603-21.877 23.904-21.864v-.001h575.731c13.255 0 24 10.746 24 24v.001c0 40.805-16.676 77.883-43.541 104.747-26.864 26.866-63.943 43.542-104.747 43.542H404.293c-40.805 0-77.883-16.676-104.747-43.542-26.865-26.864-43.541-63.942-43.541-104.747v-.001c0-13.254 10.745-24 24-24zm557.614 48H306.927c4.463 17.97 13.816 34.077 26.551 46.81 18.188 18.19 43.256 29.48 70.81 29.48h1239.42c27.554 0 52.621-11.29 70.81-29.48 12.734-12.733 22.087-28.84 26.55-46.81h-530.687a69.626 69.626 0 0 1-16.606 23.015c-12.392 11.334-28.793 18.272-46.653 18.272H900.869c-17.861 0-34.262-6.938-46.654-18.272a69.637 69.637 0 0 1-16.606-23.015z"/><g id="_475110072"><path id="_475110816" class="fil1" d="M492.179 693.915h511.642c13.254 0 24 10.746 24 24v192c0 13.254-10.746 24-24 24H492.179c-13.254 0-24-10.746-24-24v-192c0-13.254 10.746-24 24-24zm487.642 48H516.179v144h463.642v-144z"/><path id="_475110744" class="fil1" d="M1163.82 693.917h415.64v48h-415.64z"/><path id="_475110936" class="fil1" d="M1163.82 789.912h415.64v48h-415.64z"/><path id="_475109808" class="fil1" d="M1163.82 885.908h415.64v48h-415.64z"/><path id="_475109904" class="fil1" d="M468.754 1013.92H1579.82v48H468.754z"/><path id="_475110240" class="fil1" d="M468.754 1109.91H1579.82v48H468.754z"/></g></g><path style="fill:none" d="M0 0h2048v2048H0z"/></svg>