<svg xmlns="http://www.w3.org/2000/svg" xml:space="preserve" width="2048" height="2048" style="shape-rendering:geometricPrecision;text-rendering:geometricPrecision;image-rendering:optimizeQuality;fill-rule:evenodd;clip-rule:evenodd"><defs><style>.fil1{fill:none}.fil2{fill:#5d4037}.fil3{fill:#fff}</style></defs><g id="Layer_x0020_1"><path d="M1024 255.999c424.155 0 768.001 343.845 768.001 768.001 0 424.155-343.845 768.001-768.001 768.001-424.155 0-768.001-343.845-768.001-768.001 0-424.155 343.845-768.001 768.001-768.001z" style="fill:#ffd54f"/><path class="fil1" d="M0 0h2048v2048H0z"/><path class="fil1" d="M255.999 255.999h1536v1536h-1536z"/><path class="fil1" d="M0 0h2048v2048H0z"/><path class="fil1" d="M255.999 255.999h1536v1536h-1536z"/><path class="fil1" d="M0 0h2048v2048H0z"/><path class="fil1" d="M255.999 255.999h1536v1536h-1536z"/><path class="fil1" d="M0 0h2048v2048H0z"/><path class="fil1" d="M255.999 255.999h1536v1536h-1536z"/><g id="_395429160"><path id="_395559472" class="fil2" d="M1024 1216c97.202 0 176 78.797 176 175.999s-78.797 176-176 176c-97.201 0-175.999-78.797-175.999-176 0-97.201 78.797-175.999 175.999-175.999z"/><path id="_395559304" class="fil2" d="M748.731 584.364c51.486 0 98.099 20.871 131.843 54.615 33.742 33.742 54.615 80.358 54.615 131.843 0 51.485-20.873 98.1-54.615 131.843-33.744 33.741-80.358 54.615-131.843 54.615-51.484 0-98.101-20.874-131.843-54.615-33.743-33.744-54.614-80.358-54.614-131.843 0-51.485 20.871-98.1 54.614-131.843 33.742-33.744 80.359-54.615 131.843-54.615z"/><path id="_395559136" class="fil2" d="M1299.27 584.364c51.484 0 98.101 20.871 131.843 54.615 33.743 33.742 54.614 80.358 54.614 131.843 0 51.485-20.871 98.1-54.614 131.843-33.742 33.741-80.359 54.615-131.843 54.615-51.486 0-98.099-20.874-131.843-54.615-33.742-33.744-54.615-80.358-54.615-131.843 0-51.485 20.873-98.1 54.615-131.843 33.744-33.744 80.358-54.615 131.843-54.615z"/><path id="_395558968" class="fil3" d="M1387.17 682.923c-22.49-22.492-53.569-36.405-87.898-36.405-34.328 0-65.406 13.912-87.899 36.405-22.491 22.492-36.405 53.57-36.405 87.899s13.914 65.407 36.405 87.898c22.492 22.491 53.57 36.405 87.9 36.405 34.328 0 65.406-13.914 87.897-36.405 22.493-22.492 36.405-53.57 36.405-87.898 0-34.329-13.913-65.407-36.405-87.899z"/><path id="_395429592" class="fil3" d="M836.63 682.923c-22.493-22.493-53.57-36.405-87.899-36.405s-65.407 13.913-87.898 36.405-36.405 53.57-36.405 87.899 13.913 65.406 36.405 87.898c22.491 22.491 53.57 36.405 87.898 36.405 34.329 0 65.407-13.914 87.899-36.405 22.492-22.491 36.405-53.57 36.405-87.898 0-34.329-13.913-65.407-36.405-87.899z"/><path id="_395429424" class="fil2" d="M748.717 708.67c33.795 0 61.192 27.396 61.192 61.192 0 33.793-27.397 61.19-61.192 61.19-33.796 0-61.19-27.397-61.19-61.19 0-33.796 27.394-61.192 61.19-61.192z"/><path id="_395429304" class="fil2" d="M1299.25 708.67c33.796 0 61.192 27.396 61.192 61.192 0 33.793-27.396 61.19-61.192 61.19-33.795 0-61.19-27.397-61.19-61.19 0-33.796 27.395-61.192 61.19-61.192z"/></g></g></svg>