<svg xmlns="http://www.w3.org/2000/svg" viewBox="0 0 48 48"><defs><style>.cls-1{fill:#42a5f5}.cls-2{fill:#424242}</style></defs><g id="Computer_404_Error" data-name="Computer 404 Error"><path class="cls-1" d="M24 12a3 3 0 0 0-3 3v4a3 3 0 0 0 6 0v-4a3 3 0 0 0-3-3zm1 7a1 1 0 0 1-2 0v-4a1 1 0 0 1 2 0zM18 12a1 1 0 0 0-1 1v3h-2v-3a1 1 0 0 0-2 0v4a1 1 0 0 0 1 1h3v3a1 1 0 0 0 2 0v-8a1 1 0 0 0-1-1zM34 12a1 1 0 0 0-1 1v3h-2v-3a1 1 0 0 0-2 0v4a1 1 0 0 0 1 1h3v3a1 1 0 0 0 2 0v-8a1 1 0 0 0-1-1z"/><path class="cls-2" d="M40 10v15a1 1 0 0 1-1 1H9a1 1 0 0 1-1-1V10H6v15a3 3 0 0 0 3 3h30a3 3 0 0 0 3-3V10z"/><path class="cls-2" d="M45 5h-1v2h1a1 1 0 0 1 1 1v23H2V8a1 1 0 0 1 1-1h1V5H3a3 3 0 0 0-3 3v30a3 3 0 0 0 3 3h14.85l-.72 5H15a1 1 0 0 0 0 2h18a1 1 0 0 0 0-2h-2.13l-.72-5H45a3 3 0 0 0 3-3V8a3 3 0 0 0-3-3zM19.15 46l.72-5h8.26l.72 5zM46 38a1 1 0 0 1-1 1H3a1 1 0 0 1-1-1v-5h44z"/><path class="cls-1" d="M23.62 36.92a.94.94 0 0 0 .76 0 1.15 1.15 0 0 0 .33-.21l.12-.15a.76.76 0 0 0 .09-.18.64.64 0 0 0 .08-.18 1.5 1.5 0 0 0 0-.2 1.05 1.05 0 0 0-.29-.71 1.15 1.15 0 0 0-.33-.21 1 1 0 0 0-.76 0 1.15 1.15 0 0 0-.33.21 1 1 0 0 0 0 1.42 1.15 1.15 0 0 0 .33.21zM39 0H9a3 3 0 0 0-3 3v5h36V3a3 3 0 0 0-3-3zM11 5a1 1 0 1 1 1-1 1 1 0 0 1-1 1zm4 0a1 1 0 1 1 1-1 1 1 0 0 1-1 1zm4 0a1 1 0 1 1 1-1 1 1 0 0 1-1 1zm18 0h-8a1 1 0 0 1 0-2h8a1 1 0 0 1 0 2z"/></g></svg>