<svg xmlns="http://www.w3.org/2000/svg" viewBox="0 0 24 24"><path d="M12 2a10 10 0 1 0 10 10A10 10 0 0 0 12 2zm2.828 5.758 1.415-1.415a1 1 0 1 1 1.414 1.414l-1.415 1.415a1 1 0 0 1-1.414-1.414zM4 12a1 1 0 0 1 1-1h2a1 1 0 0 1 0 2H5a1 1 0 0 1-1-1zm5.172 4.242-1.415 1.415a1 1 0 0 1-1.414-1.414l1.415-1.415a1 1 0 0 1 1.414 1.414zm0-7.07a1 1 0 0 1-1.414 0L6.343 7.757a1 1 0 0 1 1.414-1.414l1.415 1.415a1 1 0 0 1 0 1.414zM13 19a1 1 0 0 1-2 0v-2a1 1 0 0 1 2 0zm0-12a1 1 0 0 1-2 0V5a1 1 0 0 1 2 0zm4.657 10.657a1 1 0 0 1-1.414 0l-1.415-1.415a1 1 0 0 1 1.414-1.414l1.415 1.415a1 1 0 0 1 0 1.414zM20 12a1 1 0 0 1-1 1h-2a1 1 0 0 1 0-2h2a1 1 0 0 1 1 1z"/></svg>