<svg xmlns="http://www.w3.org/2000/svg" xml:space="preserve" width="2048" height="2048" style="shape-rendering:geometricPrecision;text-rendering:geometricPrecision;image-rendering:optimizeQuality;fill-rule:evenodd;clip-rule:evenodd"><defs><style>.fil1{fill:#424242}</style></defs><g id="Layer_x0020_1"><g id="_474850072"><path id="_474850768" d="M710.529 1160.48c87.19 0 166.132 35.347 223.275 92.487 57.142 57.143 92.487 136.086 92.487 223.276s-35.345 166.133-92.487 223.276c-57.143 57.143-136.084 92.487-223.275 92.487s-166.133-35.344-223.276-92.487c-57.143-57.143-92.487-136.084-92.487-223.275 0-87.19 35.344-166.133 92.487-223.276 57.143-57.141 136.084-92.488 223.276-92.488zm-111.437 380.198c-12.978 12.978-12.978 34.023 0 47 12.98 12.979 34.023 12.979 47.002 0l64.435-64.434 64.435 64.435c12.978 12.978 34.023 12.978 47.001 0 12.98-12.978 12.98-34.023 0-47.001l-64.435-64.435 64.435-64.436c12.98-12.978 12.98-34.023 0-47.001-12.978-12.978-34.023-12.978-47 0l-64.436 64.435-64.435-64.435c-12.98-12.978-34.023-12.978-47.002 0-12.978 12.978-12.978 34.023 0 47l64.436 64.437-64.436 64.435z" style="fill:#424242;fill-rule:nonzero"/><path id="_474850264" class="fil1" d="M1112.86 831.44c.113 136.388.224 272.777.332 409.165.123 156.264.117 312.529.117 468.794 0 16.47 6.468 32.07 18.113 43.716 11.647 11.646 27.245 18.114 43.718 18.114 16.472 0 32.073-6.467 43.718-18.111 11.645-11.647 18.111-27.247 18.111-43.719v-431.476l.38-1.955c2.115-10.928 10.203-18.864 20.425-22.646 5.972-2.209 12.375-3.277 18.736-3.259 6.38.018 12.796 1.126 18.788 3.317 10.264 3.752 18.985 11.262 21.396 22.337l.476 2.182v431.5c0 16.47 6.467 32.07 18.112 43.717 11.647 11.645 27.244 18.113 43.718 18.113 16.47 0 32.072-6.467 43.715-18.111 11.646-11.647 18.114-27.247 18.114-43.718V767.829l37.552 51.446a242.65 242.65 0 0 1 27.71 49.06c12.412 29.542 18.693 61.16 18.693 93.2v142.196c0 17.007 6.879 32.968 18.96 44.864 12.109 11.923 28.269 18.566 45.267 18.566 16.999 0 33.157-6.642 45.264-18.564 12.081-11.898 18.96-27.86 18.96-44.866V961.534c0-48.725-9.77-96.7-28.707-141.585-19.036-45.116-46.988-86.04-81.886-120.36-71.095-69.915-166.178-108.493-265.824-108.493-99.644 0-194.726 38.579-265.819 108.493-34.9 34.32-62.851 75.245-81.888 120.362-18.938 44.883-28.708 92.86-28.708 141.584v142.197c0 17.008 6.877 32.968 18.96 44.864 12.11 11.924 28.268 18.566 45.268 18.566 16.999 0 33.155-6.642 45.264-18.564 12.081-11.898 18.961-27.86 18.961-44.866V961.535c0-32.038 6.281-63.656 18.695-93.2a242.716 242.716 0 0 1 27.76-49.13l37.497-51.333.052 63.57z"/><path id="_474850240" class="fil1" d="M1277.07 255.999c-39.91 0-77.78 15.692-105.997 43.909-28.218 28.217-43.91 66.085-43.91 105.997 0 39.91 15.692 77.78 43.909 105.998 28.217 28.215 66.086 43.907 105.998 43.907 39.912 0 77.78-15.692 105.998-43.908 28.216-28.217 43.908-66.088 43.908-105.997 0-39.912-15.692-77.78-43.91-105.997-28.216-28.217-66.086-43.91-105.996-43.91z"/></g></g><path style="fill:none" d="M0 0h2048v2048H0z"/></svg>