<svg xmlns="http://www.w3.org/2000/svg" xml:space="preserve" width="2048" height="2048" style="shape-rendering:geometricPrecision;text-rendering:geometricPrecision;image-rendering:optimizeQuality;fill-rule:evenodd;clip-rule:evenodd"><defs><style>.fil0{fill:#424242;fill-rule:nonzero}</style></defs><g id="Layer_x0020_1"><g id="_476528592"><path id="_476529336" class="fil0" d="M688.727 1185.45c79.003 0 150.532 32.027 202.309 83.803 51.775 51.777 83.803 123.306 83.803 202.309 0 79.004-32.028 150.532-83.803 202.309-51.777 51.777-123.306 83.803-202.309 83.803-79.004 0-150.532-32.026-202.309-83.803-51.777-51.777-83.803-123.305-83.803-202.31 0-79.002 32.026-150.531 83.803-202.308 51.777-51.776 123.305-83.803 202.309-83.803zm-90.803 270.157c-11.76-11.76-30.828-11.76-42.588 0-11.76 11.76-11.76 30.828 0 42.587l64.837 64.838-.002.002c11.761 11.76 30.832 11.76 42.592 0l.168-.171 159.187-159.188c11.759-11.76 11.759-30.828 0-42.588-11.76-11.76-30.828-11.76-42.589 0L641.467 1499.15l-43.543-43.543z"/><path id="_476529168" d="M1097.01 838.3c.115 138.408.228 276.815.337 415.223.124 158.577.119 317.155.119 475.733 0 16.715 6.563 32.546 18.38 44.363 11.82 11.818 27.649 18.382 44.366 18.382 16.716 0 32.547-6.562 44.365-18.38 11.818-11.817 18.38-27.649 18.38-44.365v-437.863l.384-1.984c6.91-35.698 73.102-34.328 80.52-.255l.482 2.215v437.887c0 16.715 6.564 32.547 18.38 44.364 11.821 11.818 27.649 18.381 44.366 18.381 16.714 0 32.548-6.563 44.364-18.379 11.816-11.818 18.38-27.65 18.38-44.366V795.98c61.89 48.682 85.199 89.34 85.199 174.34v144.301c0 35.71 29.69 64.37 65.178 64.37 35.486 0 65.176-28.66 65.176-64.37v-144.3c0-100.262-40.842-195.618-112.232-265.825-72.147-70.949-168.638-110.098-269.758-110.098-101.12 0-197.61 39.15-269.755 110.098-35.416 34.83-63.782 76.36-83.1 122.144-19.22 45.548-29.134 94.235-29.134 143.68v144.301c0 35.711 29.69 64.37 65.178 64.37 35.487 0 65.177-28.66 65.177-64.37v-144.3c0-84.931 23.275-125.707 85.194-174.298l.053 42.277z" style="fill:#424242"/><path id="_476529096" class="fil0" d="M1263.4 255.999c41.174 0 78.457 16.692 105.443 43.678 26.986 26.987 43.678 64.268 43.678 105.442 0 41.176-16.692 78.457-43.678 105.443-26.987 26.986-64.269 43.679-105.443 43.679-41.176 0-78.456-16.693-105.443-43.679-26.986-26.987-43.678-64.267-43.678-105.443 0-41.174 16.692-78.454 43.678-105.442C1184.943 272.692 1222.224 256 1263.4 256z"/></g></g><path style="fill:none" d="M0 0h2048v2048H0z"/></svg>